<svg width="17" height="18" viewBox="0 0 17 18" fill="none" xmlns="http://www.w3.org/2000/svg">
<path d="M13.5531 17.279C12.5731 18.229 11.5031 18.079 10.4731 17.629C9.38309 17.169 8.38309 17.149 7.23309 17.629C5.79309 18.249 5.03309 18.069 4.17309 17.279C-0.706906 12.249 0.0130939 4.58902 5.55309 4.30902C6.90309 4.37902 7.84309 5.04902 8.63309 5.10902C9.81309 4.86902 10.9431 4.17902 12.2031 4.26902C13.7131 4.38902 14.8531 4.98902 15.6031 6.06902C12.4831 7.93902 13.2231 12.049 16.0831 13.199C15.5131 14.699 14.7731 16.189 13.5431 17.289L13.5531 17.279ZM8.53309 4.24902C8.38309 2.01902 10.1931 0.179023 12.2731 -0.000976562C12.5631 2.57902 9.93309 4.49902 8.53309 4.24902Z" fill="black"/>
</svg>
