<svg width="13" height="21" viewBox="0 0 13 21" fill="none" xmlns="http://www.w3.org/2000/svg">
<path d="M4.10244 19.5264V12.2524H1.31844C1.17389 12.2524 1.03527 12.195 0.933064 12.0928C0.830857 11.9906 0.773438 11.852 0.773438 11.7074V8.83044C0.773438 8.68589 0.830857 8.54727 0.933064 8.44506C1.03527 8.34286 1.17389 8.28544 1.31844 8.28544H4.09144V5.50044C4.0251 4.83999 4.10417 4.17303 4.32309 3.54639C4.542 2.91976 4.89546 2.34866 5.35863 1.87319C5.8218 1.39773 6.38345 1.02944 7.00413 0.794185C7.62481 0.558932 8.28948 0.462423 8.95144 0.511438H11.2714C11.4174 0.511152 11.5575 0.568239 11.6617 0.670384C11.7659 0.772529 11.8258 0.911544 11.8284 1.05744V3.49344C11.8253 3.63907 11.7652 3.77768 11.6611 3.87956C11.557 3.98144 11.4171 4.03847 11.2714 4.03844H9.82144C8.25544 4.03844 7.95444 4.78044 7.95444 5.87144V8.28444H11.6774C11.7548 8.28187 11.8318 8.2962 11.9031 8.32641C11.9744 8.35662 12.0382 8.40201 12.0902 8.45939C12.1422 8.51678 12.181 8.5848 12.204 8.65873C12.227 8.73265 12.2336 8.81069 12.2234 8.88744L11.8864 11.7754C11.8696 11.9077 11.8048 12.0292 11.7043 12.1169C11.6039 12.2047 11.4748 12.2525 11.3414 12.2514H7.97744V19.5254C7.97905 19.6539 7.95493 19.7813 7.90649 19.9003C7.85805 20.0193 7.78628 20.1273 7.6954 20.2181C7.60453 20.3089 7.49639 20.3806 7.37738 20.4289C7.25836 20.4772 7.13088 20.5012 7.00244 20.4994H5.06544C4.93797 20.4997 4.81172 20.4746 4.69404 20.4256C4.57635 20.3767 4.46959 20.3047 4.37997 20.2141C4.29035 20.1235 4.21966 20.0159 4.17201 19.8977C4.12436 19.7794 4.10071 19.6539 4.10244 19.5264Z" fill="#4285F4"/>
</svg>
