<svg width="25" height="24" viewBox="0 0 25 24" fill="none" xmlns="http://www.w3.org/2000/svg">
<g clip-path="url(#clip0_256_2124)">
<path d="M23.9433 12.2242C23.9433 11.2409 23.8635 10.5234 23.6909 9.7793H12.4629V14.2173H19.0535C18.9206 15.3202 18.2031 16.9811 16.6086 18.0972L16.5862 18.2458L20.1363 20.996L20.3822 21.0205C22.6411 18.9344 23.9433 15.8649 23.9433 12.2242Z" fill="#4285F4"/>
<path d="M12.4645 23.9178C15.6933 23.9178 18.4039 22.8548 20.3838 21.0211L16.6101 18.0978C15.6003 18.8021 14.2449 19.2937 12.4645 19.2937C9.30204 19.2937 6.61798 17.2076 5.66119 14.3242L5.52094 14.3361L1.82952 17.193L1.78125 17.3271C3.74778 21.2337 7.7872 23.9178 12.4645 23.9178Z" fill="#34A853"/>
<path d="M5.65942 14.3238C5.40696 13.5797 5.26085 12.7824 5.26085 11.9586C5.26085 11.1347 5.40696 10.3375 5.64614 9.59342L5.63945 9.43494L1.90177 6.53223L1.77948 6.59039C0.968975 8.21149 0.503906 10.0319 0.503906 11.9586C0.503906 13.8853 0.968975 15.7056 1.77948 17.3267L5.65942 14.3238Z" fill="#FBBC05"/>
<path d="M12.4645 4.62403C14.71 4.62403 16.2248 5.59402 17.0885 6.40461L20.4635 3.10928C18.3907 1.1826 15.6933 0 12.4645 0C7.7872 0 3.74778 2.68406 1.78125 6.59056L5.64791 9.59359C6.61798 6.7102 9.30204 4.62403 12.4645 4.62403Z" fill="#EB4335"/>
</g>
<defs>
<clipPath id="clip0_256_2124">
<rect width="24" height="24" fill="white" transform="translate(0.5)"/>
</clipPath>
</defs>
</svg>
